# xmcd CD database file
#
# Track frame offsets:
#	150
#	27105
#	45598
#	60710
#	75872
#	88490
#	101368
#	130673
#	155138
#	167520
#	184465
#
# Disc length: 2630 seconds
#
# Revision: 0
# Processed by: cddbd v1.5.1PL0 Copyright (c) Steve Scherf et al.
# Submitted via: CDex 1.51
#
DISCID=850a440b
DTITLE=CHARLIE PAKER - JAZZ STANDARD
DYEAR=1900
DGENRE=Jazz
TTITLE0=ビル・エヴァンス - AUTUMN LEAVES
TTITLE1=ケニー・ドリュウー - MY FUNNY VALENTINE
TTITLE2=ソニー・ロリンズ - NIGHT AND DAY
TTITLE3=レイ・ブライアント - ANGEL EYES
TTITLE4=エロール・ガーナー - MISTY
TTITLE5=バド・パウエル - YESTERDAYS
TTITLE6=ウイントン・ケリー - SOFTLY AS IN A MORNING SUNRISE
TTITLE7=Art Pepper - YOUD BE NICE TO COME HOME TO
TTITLE8=スタン・ゲッツ - STELLA BY STARLIGHT
TTITLE9=JOHN COLTRANE - WHAT`S NEW
TTITLE10=チャーリー・パーカー - SUMMERTIME
EXTD=
EXTT0=
EXTT1=
EXTT2=
EXTT3=
EXTT4=
EXTT5=
EXTT6=
EXTT7=
EXTT8=
EXTT9=
EXTT10=
PLAYORDER=
